# xmcd
#
# Track frame offsets:
#	150
#	21270
#	39465
#	55479
#	69179
#	88468
#	102054
#	117703
#	133849
#	156882
#	170984
#
# Disc length: 2455 seconds
#
# Revision: 2
# Processed by: cddbd v1.5.2PL0 Copyright (c) Steve Scherf et al.
# Submitted via: EasyCDDAExtractor 10.0.3.1
#
DISCID=a109950b
DTITLE=Various Artist - TOP trendy - CD 02
DYEAR=2005
DGENRE=
TTITLE0=DELONS - Fordy
TTITLE1=DREAMLAND - Uciec stad
TTITLE2=HANA - I Don't Care
TTITLE3=KANGAROS - Name Of Love
TTITLE4=KULTURKA - Telefon z kulturka
TTITLE5=MOSQITOO - I Feel U
TTITLE6=PTAKY - Pielgrzym
TTITLE7=SIDNEY POLAK - Chomiczowka
TTITLE8=VAVAMUFFIN - Bless
TTITLE9=ZAKOPOWER - Kiedys Ty
TTITLE10=ŻYWIOŁY - Wiatr i deszcz
EXTD=YEAR: 2005
EXTT0=
EXTT1=
EXTT2=
EXTT3=
EXTT4=
EXTT5=
EXTT6=
EXTT7=
EXTT8=
EXTT9=
EXTT10=
PLAYORDER=
